<svg xmlns="http://www.w3.org/2000/svg" viewBox="0 0 800 800" fill="none">
  <!-- Athletic person in dynamic pose -->
  <g transform="translate(400, 400)">
    <!-- Head -->
    <circle cx="0" cy="-130" r="30" fill="#5DA945"/>
    
    <!-- Neck -->
    <path d="M -9 -100 L -11 -80 L 11 -80 L 9 -100" fill="#5DA945"/>
    
    <!-- Athletic torso - defined muscles -->
    <path d="M -32 -80 Q -38 -45 -35 -10 Q -33 20 -25 50 L -15 70 Q 0 73 15 70 L 25 50 Q 33 20 35 -10 Q 38 -45 32 -80 Z" fill="#5DA945"/>
    
    <!-- Chest muscle definition -->
    <path d="M -20 -50 Q 0 -45 20 -50" stroke="#7AC45A" stroke-width="2" opacity="0.6"/>
    <path d="M -15 -35 Q 0 -32 15 -35" stroke="#7AC45A" stroke-width="2" opacity="0.6"/>
    
    <!-- Left arm - bent, active pose -->
    <path d="M -32 -65 Q -55 -58 -65 -40 Q -72 -20 -75 0" stroke="#7AC45A" stroke-width="11" stroke-linecap="round" fill="none"/>
    <circle cx="-75" cy="0" r="9" fill="#7AC45A"/>
    <!-- Bicep definition -->
    <ellipse cx="-60" cy="-45" rx="12" ry="8" fill="#5DA945" opacity="0.5" transform="rotate(-25 -60 -45)"/>
    
    <!-- Right arm - extended with dumbbell -->
    <path d="M 32 -65 Q 60 -60 75 -45 Q 88 -25 95 0" stroke="#7AC45A" stroke-width="11" stroke-linecap="round" fill="none"/>
    <circle cx="95" cy="0" r="9" fill="#7AC45A"/>
    
    <!-- Left leg - athletic stance -->
    <path d="M -15 70 Q -22 105 -28 140 L -32 170" stroke="#7AC45A" stroke-width="13" stroke-linecap="round" fill="none"/>
    <ellipse cx="-32" cy="178" rx="13" ry="7" fill="#5DA945"/>
    <!-- Thigh muscle -->
    <ellipse cx="-23" cy="100" rx="10" ry="20" fill="#5DA945" opacity="0.4"/>
    
    <!-- Right leg - athletic stance -->
    <path d="M 15 70 Q 22 105 28 140 L 32 170" stroke="#7AC45A" stroke-width="13" stroke-linecap="round" fill="none"/>
    <ellipse cx="32" cy="178" rx="13" ry="7" fill="#5DA945"/>
    <!-- Thigh muscle -->
    <ellipse cx="23" cy="100" rx="10" ry="20" fill="#5DA945" opacity="0.4"/>
    
    <!-- Energy/determination expression -->
    <path d="M -13 -125 Q 0 -120 13 -125" stroke="#A8DF8E" stroke-width="2" stroke-linecap="round" fill="none"/>
    <circle cx="-8" cy="-135" r="2" fill="#A8DF8E"/>
    <circle cx="8" cy="-135" r="2" fill="#A8DF8E"/>
  </g>
  
  <!-- Dumbbell in hand -->
  <g transform="translate(495, 400)">
    <rect x="-35" y="-4" width="70" height="8" rx="4" fill="#5DA945"/>
    <rect x="-45" y="-15" width="18" height="30" rx="4" fill="#5DA945"/>
    <rect x="27" y="-15" width="18" height="30" rx="4" fill="#5DA945"/>
    <circle cx="-36" cy="0" r="3" fill="#A8DF8E"/>
    <circle cx="36" cy="0" r="3" fill="#A8DF8E"/>
  </g>
  
  <!-- Protein shake/bottle -->
  <g transform="translate(200, 280)">
    <rect x="-18" y="15" width="36" height="70" rx="4" fill="#7AC45A" opacity="0.4"/>
    <rect x="-12" y="8" width="24" height="12" fill="#5DA945"/>
    <ellipse cx="0" cy="85" rx="19" ry="8" fill="#5DA945" opacity="0.3"/>
    <!-- Shake contents -->
    <rect x="-15" y="30" width="30" height="45" fill="#A8DF8E" opacity="0.6"/>
    <path d="M -10 40 Q 0 42 10 40" stroke="#5DA945" stroke-width="1" opacity="0.4"/>
  </g>
  
  <!-- Pre-workout meal (banana) -->
  <g transform="translate(600, 250)">
    <path d="M 0 0 Q -5 -5 -8 0 Q -10 20 -8 40 Q -5 55 0 58 Q 5 55 8 40 Q 10 20 8 0 Q 5 -5 0 0 Z" fill="#7AC45A"/>
    <path d="M 0 5 L 0 50" stroke="#5DA945" stroke-width="2" opacity="0.4"/>
    <path d="M 0 0 Q 2 -8 8 -12" stroke="#5DA945" stroke-width="3" fill="none"/>
  </g>
  
  <!-- Performance chart/graph going up -->
  <g transform="translate(180, 500)">
    <path d="M 0 40 L 15 30 L 30 35 L 45 20 L 60 10 L 75 0" stroke="#5DA945" stroke-width="4" fill="none" stroke-linecap="round" stroke-linejoin="round"/>
    <circle cx="75" cy="0" r="6" fill="#A8DF8E"/>
    <!-- Axes -->
    <path d="M 0 45 L 0 50 L 80 50" stroke="#7AC45A" stroke-width="2"/>
    <!-- Upward arrow -->
    <path d="M 75 0 L 70 5 M 75 0 L 80 5" stroke="#A8DF8E" stroke-width="3" stroke-linecap="round"/>
  </g>
  
  <!-- Stopwatch/timer for timing nutrition -->
  <g transform="translate(620, 520)">
    <circle cx="0" cy="5" r="30" fill="none" stroke="#5DA945" stroke-width="4"/>
    <rect x="-5" y="-20" width="10" height="15" rx="3" fill="#7AC45A"/>
    <circle cx="0" cy="5" r="3" fill="#5DA945"/>
    <line x1="0" y1="5" x2="0" y2="-15" stroke="#5DA945" stroke-width="3" stroke-linecap="round"/>
    <line x1="0" y1="5" x2="15" y2="5" stroke="#7AC45A" stroke-width="2" stroke-linecap="round"/>
  </g>
  
  <!-- Recovery/rest symbol (zzz) -->
  <g transform="translate(250, 650)">
    <path d="M 0 0 L 15 0 L 0 8 L 15 8" stroke="#7AC45A" stroke-width="3" stroke-linecap="round" stroke-linejoin="round" fill="none"/>
    <path d="M 20 -10 L 32 -10 L 20 -3 L 32 -3" stroke="#A8DF8E" stroke-width="2.5" stroke-linecap="round" stroke-linejoin="round" fill="none"/>
    <path d="M 35 -18 L 45 -18 L 35 -12 L 45 -12" stroke="#A8DF8E" stroke-width="2" stroke-linecap="round" stroke-linejoin="round" fill="none" opacity="0.7"/>
  </g>
  
  <!-- Muscle fibers/growth indicator -->
  <g transform="translate(550, 650)">
    <rect x="0" y="0" width="8" height="40" rx="2" fill="#5DA945"/>
    <rect x="12" y="-5" width="8" height="45" rx="2" fill="#7AC45A"/>
    <rect x="24" y="2" width="8" height="38" rx="2" fill="#5DA945"/>
    <rect x="36" y="-8" width="8" height="48" rx="2" fill="#A8DF8E"/>
    <!-- Growth arrows -->
    <path d="M 4 -8 L 4 -18 L 1 -15 M 4 -18 L 7 -15" stroke="#A8DF8E" stroke-width="2" stroke-linecap="round"/>
    <path d="M 40 -16 L 40 -26 L 37 -23 M 40 -26 L 43 -23" stroke="#5DA945" stroke-width="2" stroke-linecap="round"/>
  </g>
  
  <!-- Electrolytes/minerals (molecular structure style) -->
  <g transform="translate(150, 200)">
    <circle cx="0" cy="0" r="8" fill="#7AC45A"/>
    <circle cx="25" cy="0" r="8" fill="#5DA945"/>
    <circle cx="12" cy="20" r="8" fill="#A8DF8E"/>
    <line x1="8" y1="0" x2="17" y2="0" stroke="#7AC45A" stroke-width="2"/>
    <line x1="6" y1="14" x2="10" y2="8" stroke="#5DA945" stroke-width="2"/>
    <line x1="19" y1="14" x2="15" y2="8" stroke="#A8DF8E" stroke-width="2"/>
  </g>
  
  <!-- Macro nutrients (pie chart style) -->
  <g transform="translate(650, 180)">
    <circle cx="0" cy="0" r="28" fill="#7AC45A" opacity="0.3"/>
    <path d="M 0 0 L 0 -28 A 28 28 0 0 1 24 14 Z" fill="#5DA945"/>
    <path d="M 0 0 L 24 14 A 28 28 0 0 1 -14 24 Z" fill="#7AC45A"/>
    <path d="M 0 0 L -14 24 A 28 28 0 0 1 0 -28 Z" fill="#A8DF8E"/>
    <circle cx="0" cy="0" r="10" fill="none" stroke="white" stroke-width="2" opacity="0.3"/>
  </g>
  
  <!-- Energy burst/power -->
  <g transform="translate(300, 180)">
    <path d="M 0 -25 L -5 -5 L -15 0 L -5 5 L 0 25 L 5 5 L 15 0 L 5 -5 Z" fill="#A8DF8E"/>
    <path d="M 0 -18 L -3 -3 L -10 0 L -3 3 L 0 18 L 3 3 L 10 0 L 3 -3 Z" fill="#7AC45A"/>
  </g>
  
  <g transform="translate(500, 180)">
    <path d="M 0 -20 L -4 -4 L -12 0 L -4 4 L 0 20 L 4 4 L 12 0 L 4 -4 Z" fill="#7AC45A" opacity="0.8"/>
  </g>
  
  <!-- Training intensity indicators (bars) -->
  <g transform="translate(150, 380)">
    <rect x="0" y="20" width="8" height="20" rx="2" fill="#A8DF8E" opacity="0.5"/>
    <rect x="0" y="10" width="8" height="10" rx="2" fill="#7AC45A" opacity="0.7"/>
    <rect x="0" y="0" width="8" height="10" rx="2" fill="#5DA945"/>
  </g>
  
  <g transform="translate(650, 400)">
    <rect x="0" y="25" width="8" height="25" rx="2" fill="#A8DF8E" opacity="0.5"/>
    <rect x="0" y="12" width="8" height="13" rx="2" fill="#7AC45A" opacity="0.7"/>
    <rect x="0" y="0" width="8" height="12" rx="2" fill="#5DA945"/>
  </g>
  
  <!-- Performance aura/energy field -->
  <g transform="translate(400, 400)">
    <ellipse cx="0" cy="-20" rx="140" ry="220" fill="none" stroke="#A8DF8E" stroke-width="2" opacity="0.3" stroke-dasharray="10,5"/>
    <ellipse cx="0" cy="-20" rx="170" ry="250" fill="none" stroke="#7AC45A" stroke-width="2" opacity="0.2" stroke-dasharray="10,5"/>
  </g>
  
  <!-- Speed/motion lines -->
  <g transform="translate(320, 370)">
    <path d="M 0 0 L -25 0" stroke="#A8DF8E" stroke-width="3" stroke-linecap="round" opacity="0.5"/>
    <path d="M 0 12 L -30 12" stroke="#A8DF8E" stroke-width="2" stroke-linecap="round" opacity="0.4"/>
    <path d="M 0 -12 L -20 -12" stroke="#A8DF8E" stroke-width="2" stroke-linecap="round" opacity="0.4"/>
  </g>
  
  <!-- Decorative elements for balance -->
  <circle cx="120" cy="320" r="7" fill="#A8DF8E" opacity="0.6"/>
  <circle cx="680" cy="350" r="6" fill="#7AC45A" opacity="0.5"/>
  <circle cx="180" cy="720" r="5" fill="#5DA945" opacity="0.4"/>
  <circle cx="620" cy="730" r="7" fill="#A8DF8E" opacity="0.5"/>
  
  <!-- Heart rate monitor line at bottom -->
  <g transform="translate(400, 750)">
    <path d="M -150 0 L -120 0 L -110 -15 L -100 15 L -90 -10 L -80 0 L 80 0 L 90 -10 L 100 15 L 110 -15 L 120 0 L 150 0" 
          stroke="#5DA945" stroke-width="3" fill="none" stroke-linecap="round" stroke-linejoin="round"/>
  </g>
</svg>
