<svg xmlns="http://www.w3.org/2000/svg" viewBox="0 0 800 800" fill="none">
  <!-- Lightning bolt for energy/power - center element -->
  <g transform="translate(400, 350)">
    <path d="M 10 -150 L -30 -20 L 20 -20 L -40 120 L 80 -50 L 30 -50 L 80 -150 Z" 
          fill="#7AC45A"/>
    <path d="M 20 -140 L -20 -30 L 15 -30 L -30 100 L 70 -60 L 35 -60 L 70 -140 Z" 
          fill="#A8DF8E"/>
    
    <!-- Energy sparks around bolt -->
    <circle cx="-50" cy="-100" r="6" fill="#A8DF8E"/>
    <circle cx="90" cy="-90" r="5" fill="#7AC45A"/>
    <circle cx="-55" cy="20" r="7" fill="#A8DF8E"/>
    <circle cx="95" cy="10" r="6" fill="#5DA945"/>
  </g>
  
  <!-- Stopwatch/Timer - top left (timing is everything) -->
  <g transform="translate(180, 180)">
    <circle cx="0" cy="8" r="45" fill="#5DA945" opacity="0.3"/>
    <circle cx="0" cy="8" r="40" fill="none" stroke="#5DA945" stroke-width="6"/>
    <!-- Crown/button on top -->
    <rect x="-8" y="-35" width="16" height="20" rx="4" fill="#7AC45A"/>
    <circle cx="0" cy="-25" r="5" fill="#A8DF8E"/>
    <!-- Clock hands -->
    <line x1="0" y1="8" x2="0" y2="-20" stroke="#7AC45A" stroke-width="4" stroke-linecap="round"/>
    <line x1="0" y1="8" x2="22" y2="20" stroke="#A8DF8E" stroke-width="3" stroke-linecap="round"/>
    <circle cx="0" cy="8" r="5" fill="#5DA945"/>
    <!-- Time marks -->
    <circle cx="0" cy="-32" r="3" fill="#7AC45A"/>
    <circle cx="32" cy="8" r="3" fill="#7AC45A"/>
    <circle cx="0" cy="48" r="3" fill="#7AC45A"/>
    <circle cx="-32" cy="8" r="3" fill="#7AC45A"/>
  </g>
  
  <!-- Dumbbell - top right (strength) -->
  <g transform="translate(620, 200)">
    <rect x="-50" y="-6" width="100" height="12" rx="6" fill="#5DA945"/>
    <rect x="-70" y="-25" width="25" height="50" rx="6" fill="#5DA945"/>
    <rect x="45" y="-25" width="25" height="50" rx="6" fill="#5DA945"/>
    <!-- Weight plates -->
    <rect x="-68" y="-20" width="20" height="40" rx="4" fill="#7AC45A"/>
    <rect x="48" y="-20" width="20" height="40" rx="4" fill="#7AC45A"/>
    <!-- Details -->
    <circle cx="-58" cy="0" r="4" fill="#A8DF8E"/>
    <circle cx="58" cy="0" r="4" fill="#A8DF8E"/>
    <line x1="-58" y1="-10" x2="-58" y2="10" stroke="#A8DF8E" stroke-width="2"/>
    <line x1="58" y1="-10" x2="58" y2="10" stroke="#A8DF8E" stroke-width="2"/>
  </g>
  
  <!-- Performance meter/gauge - bottom left -->
  <g transform="translate(200, 600)">
    <path d="M -50 20 A 50 50 0 0 1 50 20" fill="none" stroke="#5DA945" stroke-width="8" opacity="0.3"/>
    <path d="M -50 20 A 50 50 0 0 1 25 -40" fill="none" stroke="#7AC45A" stroke-width="8" stroke-linecap="round"/>
    <circle cx="0" cy="20" r="8" fill="#5DA945"/>
    <line x1="0" y1="20" x2="20" y2="-30" stroke="#5DA945" stroke-width="5" stroke-linecap="round"/>
    <circle cx="20" cy="-30" r="7" fill="#A8DF8E"/>
    <!-- Gauge markers -->
    <line x1="-45" y1="18" x2="-38" y2="15" stroke="#5DA945" stroke-width="3"/>
    <line x1="-30" y1="-25" x2="-24" y2="-20" stroke="#7AC45A" stroke-width="3"/>
    <line x1="0" y1="-48" x2="0" y2="-40" stroke="#7AC45A" stroke-width="3"/>
    <line x1="30" y1="-25" x2="24" y2="-20" stroke="#A8DF8E" stroke-width="3"/>
    <line x1="45" y1="18" x2="38" y2="15" stroke="#A8DF8E" stroke-width="3"/>
  </g>
  
  <!-- Molecule structure - nutrients (bottom right) -->
  <g transform="translate(600, 600)">
    <!-- Center large atom -->
    <circle cx="0" cy="0" r="25" fill="#7AC45A" opacity="0.8"/>
    <circle cx="0" cy="0" r="18" fill="#A8DF8E"/>
    <text x="0" y="8" text-anchor="middle" font-size="20" font-weight="bold" fill="#5DA945">P</text>
    
    <!-- Connected atoms -->
    <line x1="0" y1="-25" x2="0" y2="-55" stroke="#7AC45A" stroke-width="4"/>
    <circle cx="0" cy="-65" r="15" fill="#5DA945" opacity="0.8"/>
    <text x="0" y="-58" text-anchor="middle" font-size="14" font-weight="bold" fill="white">C</text>
    
    <line x1="22" y1="12" x2="45" y2="25" stroke="#7AC45A" stroke-width="4"/>
    <circle cx="55" cy="30" r="15" fill="#5DA945" opacity="0.8"/>
    <text x="55" y="37" text-anchor="middle" font-size="14" font-weight="bold" fill="white">F</text>
    
    <line x1="-22" y1="12" x2="-45" y2="25" stroke="#7AC45A" stroke-width="4"/>
    <circle cx="-55" cy="30" r="15" fill="#5DA945" opacity="0.8"/>
    <text x="-55" y="37" text-anchor="middle" font-size="14" font-weight="bold" fill="white">M</text>
  </g>
  
  <!-- Upward trending arrow graph - center left -->
  <g transform="translate(150, 400)">
    <line x1="0" y1="60" x2="0" y2="-10" stroke="#5DA945" stroke-width="4" stroke-linecap="round"/>
    <line x1="0" y1="60" x2="80" y2="60" stroke="#5DA945" stroke-width="4" stroke-linecap="round"/>
    
    <!-- Rising bars -->
    <rect x="10" y="40" width="12" height="20" fill="#7AC45A"/>
    <rect x="28" y="30" width="12" height="30" fill="#7AC45A"/>
    <rect x="46" y="15" width="12" height="45" fill="#A8DF8E"/>
    <rect x="64" y="-5" width="12" height="65" fill="#A8DF8E"/>
    
    <!-- Trend arrow -->
    <line x1="12" y1="50" x2="72" y2="0" stroke="#5DA945" stroke-width="3" stroke-linecap="round"/>
    <path d="M 72 0 L 65 5 M 72 0 L 68 8" stroke="#5DA945" stroke-width="3" stroke-linecap="round"/>
  </g>
  
  <!-- Trophy/Achievement - center right -->
  <g transform="translate(650, 420)">
    <ellipse cx="0" cy="55" rx="35" ry="8" fill="#5DA945" opacity="0.3"/>
    <!-- Base -->
    <rect x="-25" y="35" width="50" height="20" rx="3" fill="#5DA945"/>
    <rect x="-15" y="25" width="30" height="15" rx="2" fill="#7AC45A"/>
    
    <!-- Cup -->
    <path d="M -30 25 L -35 -15 Q -35 -25 -25 -30 L 25 -30 Q 35 -25 35 -15 L 30 25 Z" fill="#7AC45A"/>
    <path d="M -28 20 L -32 -15 Q -32 -22 -24 -26 L 24 -26 Q 32 -22 32 -15 L 28 20 Z" fill="#A8DF8E"/>
    
    <!-- Handles -->
    <path d="M -35 -5 Q -50 -5 -50 5 Q -50 15 -35 15" fill="none" stroke="#5DA945" stroke-width="5"/>
    <path d="M 35 -5 Q 50 -5 50 5 Q 50 15 35 15" fill="none" stroke="#5DA945" stroke-width="5"/>
    
    <!-- Star on trophy -->
    <path d="M 0 -10 L -4 2 L -15 2 L -6 9 L -9 21 L 0 14 L 9 21 L 6 9 L 15 2 L 4 2 Z" fill="#5DA945"/>
  </g>
  
  <!-- Protein shaker bottle - top center -->
  <g transform="translate(400, 150)">
    <rect x="-18" y="20" width="36" height="60" rx="5" fill="#7AC45A" opacity="0.4"/>
    <ellipse cx="0" cy="80" rx="20" ry="8" fill="#5DA945" opacity="0.3"/>
    <rect x="-20" y="15" width="40" height="10" rx="3" fill="#5DA945"/>
    <rect x="-12" y="5" width="24" height="12" rx="4" fill="#5DA945"/>
    
    <!-- Liquid inside -->
    <rect x="-15" y="45" width="30" height="30" fill="#A8DF8E" opacity="0.7"/>
    <ellipse cx="0" cy="45" rx="15" ry="5" fill="#A8DF8E" opacity="0.5"/>
    
    <!-- Shaker ball -->
    <circle cx="0" cy="60" r="6" fill="#5DA945" opacity="0.6"/>
  </g>
  
  <!-- Fire/Energy flames (left side) -->
  <g transform="translate(280, 500)">
    <path d="M 0 30 Q -10 20 -8 5 Q -5 -10 0 -25 Q 5 -10 8 5 Q 10 20 0 30 Z" fill="#7AC45A" opacity="0.7"/>
    <path d="M 0 25 Q -6 18 -5 8 Q -3 -3 0 -15 Q 3 -3 5 8 Q 6 18 0 25 Z" fill="#A8DF8E"/>
  </g>
  
  <g transform="translate(520, 520)">
    <path d="M 0 25 Q -8 17 -6 4 Q -4 -8 0 -20 Q 4 -8 6 4 Q 8 17 0 25 Z" fill="#7AC45A" opacity="0.7"/>
    <path d="M 0 20 Q -5 15 -4 6 Q -2 -2 0 -12 Q 2 -2 4 6 Q 5 15 0 20 Z" fill="#A8DF8E"/>
  </g>
  
  <!-- Energy stars scattered -->
  <g transform="translate(250, 260)">
    <path d="M 0 -18 L -5 -5 L -18 0 L -5 5 L 0 18 L 5 5 L 18 0 L 5 -5 Z" fill="#A8DF8E" opacity="0.8"/>
  </g>
  
  <g transform="translate(550, 280)">
    <path d="M 0 -15 L -4 -4 L -15 0 L -4 4 L 0 15 L 4 4 L 15 0 L 4 -4 Z" fill="#7AC45A" opacity="0.7"/>
  </g>
  
  <g transform="translate(320, 650)">
    <path d="M 0 -12 L -3 -3 L -12 0 L -3 3 L 0 12 L 3 3 L 12 0 L 3 -3 Z" fill="#A8DF8E" opacity="0.8"/>
  </g>
  
  <g transform="translate(480, 670)">
    <path d="M 0 -12 L -3 -3 L -12 0 L -3 3 L 0 12 L 3 3 L 12 0 L 3 -3 Z" fill="#5DA945" opacity="0.7"/>
  </g>
  
  <!-- Radiating energy lines from center -->
  <g transform="translate(400, 350)">
    <line x1="-120" y1="-80" x2="-140" y2="-100" stroke="#A8DF8E" stroke-width="4" opacity="0.5" stroke-linecap="round"/>
    <line x1="120" y1="-80" x2="140" y2="-100" stroke="#A8DF8E" stroke-width="4" opacity="0.5" stroke-linecap="round"/>
    <line x1="-130" y1="40" x2="-155" y2="60" stroke="#7AC45A" stroke-width="4" opacity="0.5" stroke-linecap="round"/>
    <line x1="130" y1="40" x2="155" y2="60" stroke="#7AC45A" stroke-width="4" opacity="0.5" stroke-linecap="round"/>
  </g>
  
  <!-- Small accent circles -->
  <circle cx="120" cy="320" r="7" fill="#A8DF8E" opacity="0.6"/>
  <circle cx="680" cy="340" r="8" fill="#7AC45A" opacity="0.5"/>
  <circle cx="140" cy="720" r="6" fill="#5DA945" opacity="0.5"/>
  <circle cx="660" cy="730" r="7" fill="#A8DF8E" opacity="0.6"/>
</svg>
